<svg xmlns="http://www.w3.org/2000/svg" xmlns:xlink="http://www.w3.org/1999/xlink" width="24" zoomAndPan="magnify" viewBox="0 0 810 809.999993" height="24" preserveAspectRatio="xMidYMid meet" version="1.0"><defs><clipPath id="id1"><path d="M 55.230469 1 L 754.980469 1 L 754.980469 809 L 55.230469 809 Z M 55.230469 1 " clip-rule="nonzero"/></clipPath><clipPath id="id2"><path d="M 405 1.394531 L 754.769531 203.273438 L 754.769531 606.980469 L 405 808.859375 L 55.230469 606.980469 L 55.230469 203.222656 Z M 405 1.394531 " clip-rule="nonzero"/></clipPath><clipPath id="id3"><path d="M 125.183594 82 L 684.683594 82 L 684.683594 728.996094 L 125.183594 728.996094 Z M 125.183594 82 " clip-rule="nonzero"/></clipPath><clipPath id="id4"><path d="M 404.851562 82.117188 L 684.515625 243.621094 L 684.515625 566.582031 L 404.851562 728.085938 L 125.183594 566.582031 L 125.183594 243.578125 Z M 404.851562 82.117188 " clip-rule="nonzero"/></clipPath><clipPath id="id5"><path d="M 352.515625 352.515625 L 457.515625 352.515625 L 457.515625 457.515625 L 352.515625 457.515625 Z M 352.515625 352.515625 " clip-rule="nonzero"/></clipPath><clipPath id="id6"><path d="M 457.515625 405.015625 C 457.515625 406.738281 457.433594 408.453125 457.265625 410.164062 C 457.097656 411.875 456.84375 413.574219 456.507812 415.257812 C 456.171875 416.945312 455.753906 418.613281 455.257812 420.257812 C 454.757812 421.902344 454.179688 423.519531 453.519531 425.109375 C 452.863281 426.695312 452.128906 428.25 451.316406 429.765625 C 450.507812 431.28125 449.625 432.753906 448.667969 434.183594 C 447.714844 435.613281 446.691406 436.992188 445.601562 438.324219 C 444.507812 439.652344 443.355469 440.925781 442.140625 442.140625 C 440.925781 443.355469 439.652344 444.507812 438.324219 445.601562 C 436.992188 446.691406 435.613281 447.714844 434.183594 448.667969 C 432.753906 449.625 431.28125 450.507812 429.765625 451.316406 C 428.25 452.128906 426.695312 452.863281 425.109375 453.519531 C 423.519531 454.179688 421.902344 454.757812 420.257812 455.257812 C 418.613281 455.753906 416.945312 456.171875 415.257812 456.507812 C 413.574219 456.84375 411.875 457.097656 410.164062 457.265625 C 408.453125 457.433594 406.738281 457.515625 405.015625 457.515625 C 403.296875 457.515625 401.582031 457.433594 399.871094 457.265625 C 398.160156 457.097656 396.460938 456.84375 394.773438 456.507812 C 393.089844 456.171875 391.421875 455.753906 389.777344 455.257812 C 388.132812 454.757812 386.515625 454.179688 384.925781 453.519531 C 383.335938 452.863281 381.785156 452.128906 380.269531 451.316406 C 378.753906 450.507812 377.28125 449.625 375.851562 448.667969 C 374.421875 447.714844 373.039062 446.691406 371.710938 445.601562 C 370.382812 444.507812 369.109375 443.355469 367.894531 442.140625 C 366.679688 440.925781 365.523438 439.652344 364.433594 438.324219 C 363.34375 436.992188 362.320312 435.613281 361.363281 434.183594 C 360.410156 432.753906 359.527344 431.28125 358.714844 429.765625 C 357.90625 428.25 357.171875 426.695312 356.511719 425.109375 C 355.855469 423.519531 355.277344 421.902344 354.777344 420.257812 C 354.277344 418.613281 353.863281 416.945312 353.527344 415.257812 C 353.191406 413.574219 352.9375 411.875 352.769531 410.164062 C 352.601562 408.453125 352.515625 406.738281 352.515625 405.015625 C 352.515625 403.296875 352.601562 401.582031 352.769531 399.871094 C 352.9375 398.160156 353.191406 396.460938 353.527344 394.773438 C 353.863281 393.089844 354.277344 391.421875 354.777344 389.777344 C 355.277344 388.132812 355.855469 386.515625 356.511719 384.925781 C 357.171875 383.335938 357.90625 381.785156 358.714844 380.269531 C 359.527344 378.753906 360.410156 377.28125 361.363281 375.851562 C 362.320312 374.421875 363.34375 373.039062 364.433594 371.710938 C 365.523438 370.382812 366.679688 369.109375 367.894531 367.894531 C 369.109375 366.679688 370.382812 365.523438 371.710938 364.433594 C 373.039062 363.34375 374.421875 362.320312 375.851562 361.363281 C 377.28125 360.410156 378.753906 359.527344 380.269531 358.714844 C 381.785156 357.90625 383.335938 357.171875 384.925781 356.511719 C 386.515625 355.855469 388.132812 355.277344 389.777344 354.777344 C 391.421875 354.277344 393.089844 353.863281 394.773438 353.527344 C 396.460938 353.191406 398.160156 352.9375 399.871094 352.769531 C 401.582031 352.601562 403.296875 352.515625 405.015625 352.515625 C 406.738281 352.515625 408.453125 352.601562 410.164062 352.769531 C 411.875 352.9375 413.574219 353.191406 415.257812 353.527344 C 416.945312 353.863281 418.613281 354.277344 420.257812 354.777344 C 421.902344 355.277344 423.519531 355.855469 425.109375 356.511719 C 426.695312 357.171875 428.25 357.90625 429.765625 358.714844 C 431.28125 359.527344 432.753906 360.410156 434.183594 361.363281 C 435.613281 362.320312 436.992188 363.34375 438.324219 364.433594 C 439.652344 365.523438 440.925781 366.679688 442.140625 367.894531 C 443.355469 369.109375 444.507812 370.382812 445.601562 371.710938 C 446.691406 373.039062 447.714844 374.421875 448.667969 375.851562 C 449.625 377.28125 450.507812 378.753906 451.316406 380.269531 C 452.128906 381.785156 452.863281 383.335938 453.519531 384.925781 C 454.179688 386.515625 454.757812 388.132812 455.257812 389.777344 C 455.753906 391.421875 456.171875 393.089844 456.507812 394.773438 C 456.84375 396.460938 457.097656 398.160156 457.265625 399.871094 C 457.433594 401.582031 457.515625 403.296875 457.515625 405.015625 Z M 457.515625 405.015625 " clip-rule="nonzero"/></clipPath></defs><g clip-path="url(#id1)"><g clip-path="url(#id2)"><path fill="#ff074b" d="M 55.230469 808.859375 L 754.769531 808.859375 L 754.769531 1.394531 L 55.230469 1.394531 Z M 55.230469 808.859375 " fill-opacity="1" fill-rule="nonzero"/></g></g><g clip-path="url(#id3)"><g clip-path="url(#id4)"><path fill="#111f3e" d="M 125.183594 728.085938 L 684.515625 728.085938 L 684.515625 82.117188 L 125.183594 82.117188 Z M 125.183594 728.085938 " fill-opacity="1" fill-rule="nonzero"/></g></g><g clip-path="url(#id5)"><g clip-path="url(#id6)"><path fill="#ff074b" d="M 352.515625 352.515625 L 352.515625 457.515625 L 457.515625 457.515625 L 457.515625 352.515625 Z M 352.515625 352.515625 " fill-opacity="1" fill-rule="nonzero"/></g></g></svg>
